<?xml version="1.0" encoding="UTF-8"?>
<svg version="1.1" xmlns="http://www.w3.org/2000/svg" width="390" height="365">
<path d="M0 0 C3.10485091 -0.16880016 6.21089597 -0.28736149 9.31807184 -0.40442425 C10.79397126 -0.47516365 12.26890992 -0.57136664 13.74130678 -0.69518358 C18.41172883 -1.08543759 22.50950968 -1.16440203 27.02638197 0.33927184 C30.74902602 3.65542467 32.96505806 8.07313104 35.1155839 12.50200003 C36.570451 15.43677382 38.27035445 18.21044016 39.94825697 21.02286559 C41.22893382 23.27153413 42.50488455 25.52290012 43.77638197 27.77677184 C44.8058308 29.59919795 45.83567901 31.42139754 46.86576796 33.24346191 C47.55939766 34.47048517 48.25249576 35.69780911 48.94505262 36.92543823 C51.25468493 41.00943747 53.621873 45.05548763 56.01856947 49.08927184 C56.93944349 50.65850402 56.93944349 50.65850402 57.87892103 52.25943786 C59.03602603 54.22922584 60.20670347 56.19112131 61.39259291 58.1437152 C61.90338392 59.02164733 62.41417494 59.89957946 62.94044447 60.80411559 C63.39371107 61.56329284 63.84697767 62.32247009 64.31397963 63.1046527 C65.29287882 66.17520251 64.46939705 67.52381166 63.02638197 70.33927184 C61.67966615 72.83991636 60.31102105 75.31235953 58.90138197 77.77677184 C58.50249769 78.4797943 58.10361341 79.18281677 57.69264174 79.90714294 C56.47386807 82.05309221 55.2506389 84.19644699 54.02638197 86.33927184 C53.32969199 87.56188513 52.63307315 88.78453896 51.93653822 90.00724059 C49.9701187 93.45334213 47.99869755 96.89654206 46.02638197 100.33927184 C45.02733419 102.08650303 44.02881648 103.83403588 43.03053236 105.58170348 C42.35689257 106.76077784 41.68289727 107.93964915 41.0085597 109.11832458 C39.43500171 111.86930274 37.86625548 114.62276852 36.30763197 117.38224059 C31.73631783 125.45221401 27.01616041 133.42970028 22.27638197 141.40177184 C15.84037918 152.22762132 9.52301914 163.11545816 3.3120265 174.072182 C1.36913432 177.49825431 -0.58300065 180.91902188 -2.53611803 184.33927184 C-3.13553209 185.39114684 -3.73494616 186.44302184 -4.35252428 187.52677184 C-4.88748522 188.45489684 -5.42244616 189.38302184 -5.97361803 190.33927184 C-6.49826647 191.28802184 -7.02291491 192.23677184 -7.56346178 193.21427184 C-8.02881334 193.91552184 -8.49416491 194.61677184 -8.97361803 195.33927184 C-9.63361803 195.33927184 -10.29361803 195.33927184 -10.97361803 195.33927184 C-11.38200914 194.60813171 -11.79040026 193.87699157 -12.21116686 193.12369567 C-13.73691081 190.39304076 -15.26335658 187.6627797 -16.79026842 184.9327777 C-17.77184399 183.17729995 -18.75261976 181.42137507 -19.73338366 179.66544372 C-20.66634264 177.99771911 -20.66634264 177.99771911 -21.61814928 176.29630309 C-22.18896227 175.27512389 -22.75977526 174.25394469 -23.34788561 173.20182067 C-25.42921189 169.53707362 -27.59815499 165.93953944 -29.83299303 162.36661559 C-30.45689928 161.34696716 -31.08080553 160.32731872 -31.72361803 159.27677184 C-32.35783678 158.25454528 -32.99205553 157.23231872 -33.64549303 156.17911559 C-35.14755713 152.96734912 -35.0908478 152.53486412 -33.97361803 149.33927184 C-33.15929842 147.68028532 -32.29223168 146.04677259 -31.39158678 144.43302184 C-30.85066393 143.46106872 -30.30974108 142.48911559 -29.75242662 141.48770934 C-29.16541979 140.44872497 -28.57841295 139.40974059 -27.97361803 138.33927184 C-27.07570543 136.74985778 -27.07570543 136.74985778 -26.15965319 135.12833434 C-24.20971141 131.69409345 -22.25003396 128.26553058 -20.28611803 124.83927184 C-19.57273564 123.59358699 -18.85935678 122.34790011 -18.14598131 121.1022113 C-16.73384687 118.63722759 -15.32069413 116.1728316 -13.9067235 113.70890075 C-12.73267047 111.66238902 -11.55955823 109.61533668 -10.38816881 107.56729919 C-9.0448081 105.21862665 -7.69777486 102.87211885 -6.34861803 100.52677184 C-5.72225451 99.43392883 -5.72225451 99.43392883 -5.08323717 98.31900817 C-2.53331813 93.90915954 0.12071648 89.58023981 2.84669447 85.27677184 C3.49815443 84.23883483 4.14961439 83.20089782 4.82081556 82.13150817 C6.09803816 80.10373791 7.38947892 78.08483481 8.69679213 76.07633239 C9.27477552 75.1563446 9.85275892 74.2363568 10.44825697 73.28849059 C10.97000502 72.47726745 11.49175306 71.6660443 12.02931166 70.83023864 C13.33280297 67.57374454 12.93157153 65.69297539 12.02638197 62.33927184 C11.13940515 60.30966704 11.13940515 60.30966704 9.95997572 58.54239684 C9.55714369 57.89399841 9.15431166 57.24559997 8.73927259 56.57755309 C8.31839369 55.92142028 7.89751478 55.26528747 7.46388197 54.58927184 C3.02638197 47.57276957 3.02638197 47.57276957 3.02638197 45.33927184 C2.44296537 45.35179992 1.85954878 45.364328 1.25845289 45.37723571 C-4.9575933 45.51018395 -11.17371113 45.63933073 -17.3898778 45.76651794 C-19.69263146 45.81409615 -21.99536699 45.86256213 -24.29808092 45.91202575 C-27.65732755 45.98401485 -31.01663216 46.0525279 -34.37596178 46.12052184 C-35.36249239 46.14239562 -36.349023 46.1642694 -37.36544847 46.18680602 C-57.26331653 46.57768316 -77.17259519 46.33452184 -97.07127428 46.12052184 C-99.25514662 46.09798955 -101.43902015 46.07557171 -103.62289476 46.0532611 C-109.27623238 45.99520818 -114.92955294 45.93563722 -120.58287096 45.87570983 C-126.38954246 45.81443897 -132.19622932 45.75465935 -138.00291491 45.69474059 C-149.3264978 45.57768044 -160.65006317 45.45901073 -171.97361803 45.33927184 C-171.01968258 43.58869304 -170.06554101 41.83822654 -169.11131334 40.087807 C-168.57999804 39.11300384 -168.04868273 38.13820068 -167.50126696 37.13385803 C-166.26510852 34.87250647 -165.02364818 32.61466563 -163.77049303 30.36270934 C-163.45868971 29.80200587 -163.14688639 29.24130239 -162.82563448 28.6636079 C-162.10007583 27.38018093 -161.35982886 26.10493007 -160.60407305 24.83904964 C-158.48497847 21.24961309 -156.72291702 17.82412581 -155.39122057 13.86870605 C-153.49075268 8.845235 -151.35584266 4.60714036 -146.97361803 1.33927184 C-138.06093414 -1.68473641 -128.11170326 -0.82524607 -118.80927896 -0.5863542 C-115.01896032 -0.50736672 -111.22905021 -0.52623718 -107.43809557 -0.53400391 C-100.23122401 -0.53417194 -93.02809428 -0.44810357 -85.82228756 -0.33043444 C-77.75563357 -0.20264451 -69.68953268 -0.1679842 -61.62200499 -0.14298707 C-51.71913277 -0.11119522 -41.81664922 -0.0638942 -31.91441393 0.05568725 C-30.86568078 0.06766065 -30.86568078 0.06766065 -29.79576111 0.07987595 C-26.34136646 0.12074223 -22.88768746 0.17235225 -19.43378496 0.24381953 C-12.93599474 0.36499171 -6.49118161 0.36026362 0 0 Z " fill="#9BDDC5" transform="translate(305.9736180305481,115.66072815656662)"/>
<path d="M0 0 C0.99 0 1.98 0 3 0 C3.36351563 0.75023437 3.72703125 1.50046875 4.1015625 2.2734375 C4.60429688 3.29695313 5.10703125 4.32046875 5.625 5.375 C6.11226563 6.37273438 6.59953125 7.37046875 7.1015625 8.3984375 C9.96790515 14.00267058 13.36359925 19.31702421 16.63916016 24.6875 C18.2761803 27.38617371 19.88959684 30.09787623 21.5 32.8125 C22.06203125 33.72708984 22.6240625 34.64167969 23.203125 35.58398438 C23.98429687 36.91333008 23.98429687 36.91333008 24.78125 38.26953125 C25.4937793 39.45446167 25.4937793 39.45446167 26.22070312 40.66333008 C27 43 27 43 26.32910156 45.46118164 C24.92991526 48.13387421 23.48923979 50.75470937 21.953125 53.3515625 C21.355 54.36863281 20.756875 55.38570312 20.140625 56.43359375 C19.51671875 57.48675781 18.8928125 58.53992188 18.25 59.625 C14.20858209 66.46629854 10.23544993 73.32526813 6.45654297 80.31542969 C4.00026683 84.84261916 1.46934734 89.32726593 -1.0625 93.8125 C-1.61180176 94.79009277 -2.16110352 95.76768555 -2.72705078 96.77490234 C-5.66140735 101.97055212 -8.65619846 107.11636581 -11.76953125 112.20703125 C-12.37337646 113.20049561 -12.97722168 114.19395996 -13.59936523 115.2175293 C-14.76202488 117.12129853 -15.93690639 119.01767009 -17.12524414 120.90551758 C-17.64852295 121.7642749 -18.17180176 122.62303223 -18.7109375 123.5078125 C-19.17806152 124.25691895 -19.64518555 125.00602539 -20.12646484 125.77783203 C-21.24591574 128.62557996 -20.8962438 130.10671959 -20 133 C-18.74290184 135.43683643 -17.4607358 137.77398406 -16.0625 140.125 C-15.70220703 140.74503906 -15.34191406 141.36507812 -14.97070312 142.00390625 C-13.38298374 144.72320465 -11.74707175 147.37939238 -10 150 C-6.90884343 150.45016146 -6.90884343 150.45016146 -3.19174194 150.36076355 C-2.48357854 150.36332682 -1.77541513 150.3658901 -1.04579222 150.36853105 C1.33900324 150.37349216 3.72317255 150.35693843 6.10791016 150.34057617 C7.81261683 150.3397304 9.5173246 150.34020407 11.22203064 150.34190369 C15.86028905 150.34276701 20.49831633 150.32508685 25.13652086 150.30418181 C29.97986725 150.28547106 34.82321851 150.28366901 39.66659546 150.28010559 C48.84285728 150.27076862 58.01901231 150.24613254 67.19522703 150.21605712 C77.64004151 150.18256445 88.084861 150.16604004 98.52971578 150.15097082 C120.0198702 150.11958438 141.50992838 150.06679185 163 150 C161.67816177 154.10060885 160.22437998 157.63476684 158.0234375 161.34375 C157.43433594 162.3440625 156.84523437 163.344375 156.23828125 164.375 C155.62339844 165.40625 155.00851563 166.4375 154.375 167.5 C149.17400304 176.2929709 144.06965286 185.1281075 139 194 C80.92 194 22.84 194 -37 194 C-40.96 186.74 -44.92 179.48 -49 172 C-51.25689691 168.23000895 -53.50851667 164.50686052 -55.875 160.8125 C-59.70305535 154.73064875 -63.45616769 148.66372145 -66.78515625 142.2890625 C-67.64190243 140.67474333 -68.55110003 139.0877352 -69.49609375 137.5234375 C-69.97175781 136.73195312 -70.44742188 135.94046875 -70.9375 135.125 C-71.56978516 134.10792969 -71.56978516 134.10792969 -72.21484375 133.0703125 C-73.26244872 130.30797105 -72.75756073 128.83929185 -72 126 C-70.85180664 123.68261719 -70.85180664 123.68261719 -69.41015625 121.296875 C-68.61170288 119.96233276 -68.61170288 119.96233276 -67.79711914 118.60083008 C-67.22469482 117.66005615 -66.65227051 116.71928223 -66.0625 115.75 C-64.87485873 113.76961596 -63.68736026 111.78914628 -62.5 109.80859375 C-61.61248047 108.33688721 -61.61248047 108.33688721 -60.70703125 106.83544922 C-58.30244371 102.84133026 -55.92724316 98.83030773 -53.5625 94.8125 C-53.15056396 94.11318359 -52.73862793 93.41386719 -52.31420898 92.69335938 C-49.70372243 88.24479543 -47.20039046 83.75022625 -44.7578125 79.20703125 C-42.22531285 74.58662633 -39.61278981 70.01287027 -37 65.4375 C-36.50129395 64.56254883 -36.00258789 63.68759766 -35.48876953 62.78613281 C-33.00282469 58.44041749 -30.48319033 54.11979543 -27.8984375 49.83203125 C-25.39526411 45.6794832 -22.98327076 41.4861429 -20.625 37.25 C-19.85326081 35.87087195 -19.08111697 34.49197028 -18.30859375 33.11328125 C-17.73407471 32.08775146 -17.73407471 32.08775146 -17.14794922 31.04150391 C-13.79138134 25.07220985 -10.38458619 19.13018393 -6.96044922 13.19946289 C-5.13406622 10.02685477 -3.36410365 6.84835386 -1.75 3.5625 C-0.88375 1.7990625 -0.88375 1.7990625 0 0 Z " fill="#91DAC9" transform="translate(96,52)"/>
<path d="M0 0 C19.50570079 -0.11565671 39.01130502 -0.20492755 58.51727772 -0.25906086 C67.57389294 -0.28486202 76.63029144 -0.32004885 85.68676758 -0.37719727 C93.5787769 -0.42697396 101.47062931 -0.4592771 109.36279124 -0.47044247 C113.54319884 -0.47697105 117.72315746 -0.49235401 121.9034214 -0.52865028 C125.83593543 -0.56251964 129.76781441 -0.57307162 133.70046043 -0.56553841 C135.14569929 -0.56691705 136.59095879 -0.57690417 138.03607178 -0.59602737 C140.00544475 -0.62081572 141.97515641 -0.61196323 143.94465637 -0.60127258 C145.04804257 -0.60588155 146.15142878 -0.61049051 147.28825092 -0.61523914 C150 -0 150 -0 151.77543163 2.37644672 C152.17953919 3.24221931 152.58364676 4.10799189 153 5 C154.12070149 6.75275588 155.24587153 8.50266091 156.375 10.25 C158.90173934 14.21382234 161.29713655 18.2017717 163.5390625 22.33203125 C164.76484935 24.57056713 166.01246167 26.79295533 167.2734375 29.01171875 C167.88372803 30.08740112 167.88372803 30.08740112 168.50634766 31.18481445 C169.32456161 32.62576408 170.14450206 34.06573495 170.96630859 35.50463867 C172.55501852 38.31049992 173.97764173 40.93292519 175 44 C155.68582813 44.56210665 136.37332673 44.98453963 117.05265617 45.24349213 C108.08000283 45.36696342 99.11244578 45.53504797 90.14306641 45.81054688 C82.31940343 46.05073874 74.49942946 46.20480495 66.6721822 46.25812387 C62.53000712 46.28928147 58.39837685 46.36166956 54.25960922 46.53752136 C29.13951716 47.56485398 29.13951716 47.56485398 22.20645905 41.5942688 C16.18084895 34.15752997 12.130556 25.32482416 10 16 C9.34 16 8.68 16 8 16 C5.36 10.72 2.72 5.44 0 0 Z " fill="#E6F3A8" transform="translate(134,31)"/>
<path d="M0 0 C1.2175296 -0.00175232 2.4350592 -0.00350464 3.68948364 -0.00531006 C7.00592282 -0.00893916 10.32229902 -0.00811309 13.63873458 -0.00493097 C17.13019498 -0.00238081 20.62165288 -0.00475253 24.1131134 -0.00631714 C29.9795479 -0.00813233 35.84596977 -0.00575088 41.71240234 -0.00097656 C48.46003619 0.00445209 55.20763975 0.00271094 61.95527285 -0.00280297 C67.77813288 -0.00736791 73.60098387 -0.00796784 79.42384511 -0.0053643 C82.88830867 -0.00381838 86.35275808 -0.00356061 89.81722069 -0.00690079 C93.69065871 -0.01037474 97.56406395 -0.00553498 101.4375 0 C102.56057053 -0.00202423 103.68364105 -0.00404846 104.84074402 -0.00613403 C110.61770574 0.00902178 116.39072311 0.13483147 122.1620636 0.39138794 C123.87828147 0.46033359 123.87828147 0.46033359 125.62917042 0.53067207 C128.54223633 1.12939453 128.54223633 1.12939453 130.4558897 2.97410393 C131.72973633 5.06689453 131.72973633 5.06689453 132.99145508 7.78955078 C134.99269732 12.09953093 137.51049462 15.99043313 140.04223633 20.00439453 C143.83847882 26.15081335 147.32532606 32.31270847 150.42114258 38.84423828 C151.57159544 41.31591585 151.57159544 41.31591585 153.54223633 44.12939453 C133.97557131 44.40984012 114.40931454 44.6213842 94.84105587 44.75114059 C85.75484436 44.81299365 76.66988216 44.89729939 67.58447266 45.03466797 C59.66458398 45.15435704 51.74559996 45.23171063 43.82483202 45.25845647 C39.63105894 45.27409035 35.43987357 45.31075855 31.24693108 45.39815521 C27.29719687 45.47981305 23.35110621 45.50470092 19.40060806 45.48668671 C17.95365748 45.48997992 16.50658134 45.51375111 15.06036186 45.55986023 C10.63716379 45.69392836 6.72905287 45.62480088 2.54223633 44.12939453 C-0.76407993 40.49710456 -2.57249736 36.62623104 -4.45776367 32.12939453 C-5.31220283 30.55555687 -6.18284631 28.99017745 -7.08276367 27.44189453 C-7.8755063 26.00498762 -8.66717846 24.56748959 -9.45776367 23.12939453 C-12.96968632 16.76630799 -16.55997327 10.46462312 -20.27807617 4.21923828 C-21.45776367 2.12939453 -21.45776367 2.12939453 -21.45776367 1.12939453 C-14.27202428 0.17954576 -7.24322854 -0.01293865 0 0 Z " fill="#44C2E8" transform="translate(106.457763671875,287.87060546875)"/>
<path d="M0 0 C0.66 0 1.32 0 2 0 C2 3.63 2 7.26 2 11 C1.01 11 0.02 11 -1 11 C-1.33 12.32 -1.66 13.64 -2 15 C-3.32 15.33 -4.64 15.66 -6 16 C-6.103125 16.53625 -6.20625 17.0725 -6.3125 17.625 C-7 20 -7 20 -8.625 23.0625 C-10.39437733 25.96451683 -10.39437733 25.96451683 -9 29 C-8.01 29.33 -7.02 29.66 -6 30 C-6.185625 30.7425 -6.37125 31.485 -6.5625 32.25 C-6.99203108 34.94990963 -6.85122974 36.44631077 -6 39 C-5.1028125 38.7525 -5.1028125 38.7525 -4.1875 38.5 C-2 38 -2 38 1 38 C0.95875 38.9075 0.9175 39.815 0.875 40.75 C0.76177501 43.92136869 0.76177501 43.92136869 2.125 46.125 C2.41375 46.74375 2.7025 47.3625 3 48 C2.125 50.25 2.125 50.25 1 52 C1.66 52 2.32 52 3 52 C3.33 52.99 3.66 53.98 4 55 C4.9590625 55.185625 4.9590625 55.185625 5.9375 55.375 C6.618125 55.58125 7.29875 55.7875 8 56 C9.25 58.5625 9.25 58.5625 10 61 C10.66 61 11.32 61 12 61 C11.505 58.525 11.505 58.525 11 56 C11.78375 55.9175 12.5675 55.835 13.375 55.75 C16.06324842 55.26127622 16.06324842 55.26127622 17.3125 53.3125 C18.15900919 50.46515091 18.13428922 47.95436294 18 45 C19.32 44.34 20.64 43.68 22 43 C22 42.34 22 41.68 22 41 C21.01 40.505 21.01 40.505 20 40 C21.65 40 23.3 40 25 40 C26.5335076 37.5644291 27.10537623 36.50053711 26.5 33.625 C25.85617889 30.24493917 26.7534929 28.15292971 28 25 C30.31 24.67 32.62 24.34 35 24 C34.505 20.535 34.505 20.535 34 17 C36.90600261 15.74335022 38.79604584 15 42 15 C40.27690764 19.88696251 37.67888432 24.17868784 35.0625 28.625 C34.06890923 30.32676384 33.07542266 32.02858853 32.08203125 33.73046875 C31.57236816 34.60106934 31.06270508 35.47166992 30.53759766 36.36865234 C28.56462672 39.74507038 26.60633076 43.12984622 24.64990234 46.51586914 C23.27602148 48.89248655 21.89789679 51.26660659 20.51953125 53.640625 C18.93663259 56.37054302 17.37034096 59.10847289 15.82421875 61.859375 C15.20160156 62.95765625 14.57898438 64.0559375 13.9375 65.1875 C13.41027344 66.12980469 12.88304687 67.07210937 12.33984375 68.04296875 C11.89769531 68.68878906 11.45554687 69.33460938 11 70 C10.34 70 9.68 70 9 70 C8.59160889 69.26885986 8.18321777 68.53771973 7.76245117 67.78442383 C6.23670722 65.05376892 4.71026146 62.32350786 3.18334961 59.59350586 C2.20177404 57.83802811 1.22099827 56.08210323 0.24023438 54.32617188 C-0.38173828 53.21435547 -1.00371094 52.10253906 -1.64453125 50.95703125 C-2.21534424 49.93585205 -2.78615723 48.91467285 -3.37426758 47.86254883 C-5.45559385 44.19780178 -7.62453696 40.60026759 -9.859375 37.02734375 C-10.48328125 36.00769531 -11.1071875 34.98804688 -11.75 33.9375 C-12.38421875 32.91527344 -13.0184375 31.89304687 -13.671875 30.83984375 C-15 28 -15 28 -14.86328125 25.9375 C-11.74545767 18.94003169 -7.69471083 12.37016417 -3.75 5.8125 C-3.08484375 4.70519531 -2.4196875 3.59789062 -1.734375 2.45703125 C-1.16203125 1.64621094 -0.5896875 0.83539063 0 0 Z " fill="#59C4DF" transform="translate(286,241)"/>
<path d="M0 0 C0.66 0 1.32 0 2 0 C1.1712326 10.56356858 -3.04319159 20.63383051 -9.96921539 28.64260864 C-20.31141311 36.68693072 -37.65027871 33.87755507 -49.9590354 33.43345451 C-54.85357654 33.28247808 -59.74853995 33.26925548 -64.64505005 33.24084473 C-73.89853337 33.16650773 -83.14513799 32.96997617 -92.3956033 32.72845697 C-102.9340493 32.45933855 -113.47284039 32.32803681 -124.01387191 32.20776653 C-145.67974147 31.95750398 -167.33943612 31.53592393 -189 31 C-189.97844262 29.27874974 -190.94808128 27.55249324 -191.9140625 25.82421875 C-192.45498535 24.86346436 -192.9959082 23.90270996 -193.55322266 22.9128418 C-195.51453798 18.9640647 -196.28916045 15.33612126 -197 11 C-196.34 10.67 -195.68 10.34 -195 10 C-194.01 10.66 -193.02 11.32 -192 12 C-192.66 12 -193.32 12 -194 12 C-192.78184562 16.68520915 -191.30440013 20.70543612 -189 25 C-187.35 25 -185.7 25 -184 25 C-184 25.99 -184 26.98 -184 28 C-179.30117312 28.75491442 -174.80313529 29.1239681 -170.04603577 29.12025452 C-169.05088641 29.12153615 -169.05088641 29.12153615 -168.03563303 29.12284368 C-165.83240222 29.12447909 -163.62924908 29.11900917 -161.42602539 29.11352539 C-159.83880617 29.11324307 -158.25158682 29.11340212 -156.66436768 29.1139679 C-152.36945311 29.11425413 -148.07456662 29.10838546 -143.77965856 29.10139394 C-139.28600409 29.0951315 -134.79234895 29.09455431 -130.2986908 29.09336853 C-121.79554398 29.09026373 -113.29241006 29.08206183 -104.78926891 29.07201904 C-95.10610032 29.06083145 -85.4229311 29.05534079 -75.73975766 29.05032361 C-55.82649791 29.0398785 -35.91324977 29.02229556 -16 29 C-15.67 28.01 -15.34 27.02 -15 26 C-14.34 26 -13.68 26 -13 26 C-13.34786708 24.02463255 -13.34786708 24.02463255 -14 22 C-14.66 21.67 -15.32 21.34 -16 21 C-15.34 21 -14.68 21 -14 21 C-13.67 20.34 -13.34 19.68 -13 19 C-12.38125 18.938125 -11.7625 18.87625 -11.125 18.8125 C-8.57188389 18.10409381 -8.57188389 18.10409381 -7.1875 14.5625 C-6.795625 13.386875 -6.40375 12.21125 -6 11 C-6.33 10.34 -6.66 9.68 -7 9 C-6.360625 8.7525 -5.72125 8.505 -5.0625 8.25 C-2.83323057 7.20668205 -2.83323057 7.20668205 -2.375 5.0625 C-2.189375 4.0415625 -2.189375 4.0415625 -2 3 C-1.34 2.01 -0.68 1.02 0 0 Z " fill="#86CED7" transform="translate(248,215)"/>
<path d="M0 0 C1.2175296 -0.00175232 2.4350592 -0.00350464 3.68948364 -0.00531006 C7.00592282 -0.00893916 10.32229902 -0.00811309 13.63873458 -0.00493097 C17.13019498 -0.00238081 20.62165288 -0.00475253 24.1131134 -0.00631714 C29.9795479 -0.00813233 35.84596977 -0.00575088 41.71240234 -0.00097656 C48.46003619 0.00445209 55.20763975 0.00271094 61.95527285 -0.00280297 C67.77813288 -0.00736791 73.60098387 -0.00796784 79.42384511 -0.0053643 C82.88830867 -0.00381838 86.35275808 -0.00356061 89.81722069 -0.00690079 C93.69065871 -0.01037474 97.56406395 -0.00553498 101.4375 0 C102.56057053 -0.00202423 103.68364105 -0.00404846 104.84074402 -0.00613403 C121.34239916 0.03715792 121.34239916 0.03715792 128.54223633 1.12939453 C128.87223633 1.78939453 129.20223633 2.44939453 129.54223633 3.12939453 C123.60223633 3.12939453 117.66223633 3.12939453 111.54223633 3.12939453 C111.54223633 2.46939453 111.54223633 1.80939453 111.54223633 1.12939453 C107.43779466 1.26806714 103.33376593 1.41655556 99.22973633 1.56689453 C97.47886719 1.62586914 97.47886719 1.62586914 95.69262695 1.68603516 C94.57436523 1.72792969 93.45610352 1.76982422 92.30395508 1.81298828 C91.27230225 1.849646 90.24064941 1.88630371 89.17773438 1.92407227 C86.43475374 2.03100695 86.43475374 2.03100695 83.54223633 3.12939453 C80.76002906 3.23939991 78.0015594 3.29391791 75.21875 3.30297852 C73.9450782 3.31300903 73.9450782 3.31300903 72.64567566 3.32324219 C70.80086388 3.33729399 68.9560347 3.34918764 67.11119652 3.35918999 C64.189815 3.37560284 61.268562 3.39884167 58.34724426 3.42408752 C50.04080617 3.49485005 41.73431526 3.55493892 33.42773438 3.60620117 C28.34730092 3.63803301 23.26701478 3.67932067 18.18670082 3.72639656 C16.25188159 3.74239285 14.31702843 3.75472536 12.38216209 3.76330376 C9.67259179 3.77548865 6.96336627 3.79965245 4.25390625 3.82641602 C3.05903595 3.82729973 3.05903595 3.82729973 1.84002686 3.82820129 C-2.63842434 3.88667186 -6.23679962 4.44297612 -10.45776367 6.12939453 C-10.92739627 12.49552524 -10.64082113 16.94527155 -7.23510742 22.43798828 C-6.45776367 24.12939453 -6.45776367 24.12939453 -7.45776367 27.12939453 C-9.23053243 23.92212702 -11.00062873 20.71339206 -12.77026367 17.50439453 C-13.26977539 16.60076172 -13.76928711 15.69712891 -14.28393555 14.76611328 C-16.76659141 10.26116159 -19.20657097 5.75471196 -21.45776367 1.12939453 C-14.27202428 0.17954576 -7.24322854 -0.01293865 0 0 Z " fill="#72BDD1" transform="translate(106.457763671875,287.87060546875)"/>
<path d="M0 0 C0.99 0 1.98 0 3 0 C3.83819158 1.62249941 4.6704116 3.24808497 5.5 4.875 C5.9640625 5.77992187 6.428125 6.68484375 6.90625 7.6171875 C8 10 8 10 8 12 C7.071875 11.7215625 7.071875 11.7215625 6.125 11.4375 C3.95839822 10.76313824 3.95839822 10.76313824 2 12 C1.01 11.67 0.02 11.34 -1 11 C-0.505 12.98 -0.505 12.98 0 15 C-0.99 15.33 -1.98 15.66 -3 16 C-3 15.01 -3 14.02 -3 13 C-3.268125 13.94875 -3.53625 14.8975 -3.8125 15.875 C-5 19 -5 19 -8 21 C-8.25030977 23.58380177 -8.25030977 23.58380177 -8 26 C-8.66 26 -9.32 26 -10 26 C-10.66 27.32 -11.32 28.64 -12 30 C-10.68 30 -9.36 30 -8 30 C-8 30.66 -8 31.32 -8 32 C-8.99 32.33 -9.98 32.66 -11 33 C-11.495 33.99 -11.495 33.99 -12 35 C-12.99 34.67 -13.98 34.34 -15 34 C-16.68630119 37.51033129 -16.68630119 37.51033129 -16.625 41.3125 C-16.41875 41.869375 -16.2125 42.42625 -16 43 C-16.7425 43.20625 -17.485 43.4125 -18.25 43.625 C-21.83368332 45.41684166 -23.03492182 47.56111318 -25 51 C-25.33 51.99 -25.66 52.98 -26 54 C-25.34 54.33 -24.68 54.66 -24 55 C-25.485 55.495 -25.485 55.495 -27 56 C-27 56.66 -27 57.32 -27 58 C-25.515 58.495 -25.515 58.495 -24 59 C-26.31 59.66 -28.62 60.32 -31 61 C-31.78067496 64.41545293 -32.08972193 67.50084487 -32 71 C-32 72.32 -32 73.64 -32 75 C-34.64 75 -37.28 75 -40 75 C-39.896875 75.928125 -39.79375 76.85625 -39.6875 77.8125 C-39.790625 78.864375 -39.89375 79.91625 -40 81 C-42.5 82.875 -42.5 82.875 -45 84 C-44.71125 83.484375 -44.4225 82.96875 -44.125 82.4375 C-42.88500452 79.95041489 -42.88500452 79.95041489 -42.2265625 76.8984375 C-40.9324077 72.28117676 -38.62587661 68.32589766 -36.25 64.1875 C-35.79826416 63.38779785 -35.34652832 62.5880957 -34.88110352 61.76416016 C-32.17805214 56.99783287 -29.40416578 52.27950559 -26.55078125 47.6015625 C-24.11009821 43.50711689 -21.796517 39.34217119 -19.46777344 35.18334961 C-15.34845348 27.82704929 -11.17607037 20.50106129 -6.96044922 13.19946289 C-5.13406622 10.02685477 -3.36410365 6.84835386 -1.75 3.5625 C-0.88375 1.7990625 -0.88375 1.7990625 0 0 Z " fill="#DFEFAF" transform="translate(96,52)"/>
<path d="M0 0 C19.50570079 -0.11565671 39.01130502 -0.20492755 58.51727772 -0.25906086 C67.57389294 -0.28486202 76.63029144 -0.32004885 85.68676758 -0.37719727 C93.5787769 -0.42697396 101.47062931 -0.4592771 109.36279124 -0.47044247 C113.54319884 -0.47697105 117.72315746 -0.49235401 121.9034214 -0.52865028 C125.83593543 -0.56251964 129.76781441 -0.57307162 133.70046043 -0.56553841 C135.14569929 -0.56691705 136.59095879 -0.57690417 138.03607178 -0.59602737 C140.00544475 -0.62081572 141.97515641 -0.61196323 143.94465637 -0.60127258 C145.04804257 -0.60588155 146.15142878 -0.61049051 147.28825092 -0.61523914 C150 0 150 0 151.80424023 2.39304829 C152.39614131 3.68348938 152.39614131 3.68348938 153 5 C153.5878125 6.1446875 153.5878125 6.1446875 154.1875 7.3125 C154.5896875 8.1478125 154.5896875 8.1478125 155 9 C154.01 9 153.02 9 152 9 C152 8.01 152 7.02 152 6 C151.34 6 150.68 6 150 6 C150 4.68 150 3.36 150 2 C149.45585449 2.1630749 148.91170898 2.32614981 148.35107422 2.49416637 C145.62812674 3.08000853 143.16924095 3.11048518 140.3828125 3.09333801 C139.23876953 3.08893204 138.09472656 3.08452606 136.91601562 3.07998657 C135.66498047 3.07010712 134.41394531 3.06022766 133.125 3.05004883 C131.79101804 3.04321653 130.45703343 3.03688658 129.12304688 3.03102112 C126.25290951 3.0177025 123.38280644 3.00156606 120.51269531 2.98346901 C115.97462909 2.95561924 111.43656329 2.93862273 106.8984375 2.92399597 C105.34423824 2.91885232 103.79003902 2.9136957 102.23583984 2.90852642 C101.06852325 2.90464808 101.06852325 2.90464808 99.87762451 2.90069139 C89.31416671 2.86464527 78.7508144 2.81920149 68.1875 2.75317383 C61.05906316 2.70870361 53.93071804 2.6784304 46.80215454 2.66431636 C43.0303778 2.65623801 39.25895196 2.64070211 35.48730469 2.60764503 C31.94139048 2.57662003 28.3958984 2.56411763 24.84985352 2.56586266 C22.9278218 2.56187711 21.00586399 2.53793393 19.08398438 2.51342773 C17.36791992 2.51950798 17.36791992 2.51950798 15.6171875 2.52571106 C14.62315918 2.52072507 13.62913086 2.51573908 12.60498047 2.510602 C9.31025463 3.12958255 8.1153738 4.47226862 6 7 C6.474375 7.37125 6.94875 7.7425 7.4375 8.125 C9.52205802 10.62646962 9.64621491 12.81593418 10 16 C9.34 16 8.68 16 8 16 C5.36 10.72 2.72 5.44 0 0 Z " fill="#ECF2B4" transform="translate(134,31)"/>
<path d="M0 0 C0.33 0.99 0.66 1.98 1 3 C0.34926514 2.99476318 -0.30146973 2.98952637 -0.97192383 2.98413086 C-3.91877274 2.96335062 -6.86560623 2.9503365 -9.8125 2.9375 C-10.83666016 2.92912109 -11.86082031 2.92074219 -12.91601562 2.91210938 C-13.89892578 2.90888672 -14.88183594 2.90566406 -15.89453125 2.90234375 C-16.80050049 2.89710693 -17.70646973 2.89187012 -18.63989258 2.88647461 C-21.15284039 2.90079019 -21.15284039 2.90079019 -24 4 C-24 3.34 -24 2.68 -24 2 C-24.99 2 -25.98 2 -27 2 C-27.33 2.66 -27.66 3.32 -28 4 C-31 4 -31 4 -33.33365536 3.50919819 C-36.17080769 2.96738045 -38.77410247 2.86544124 -41.66151428 2.85282898 C-43.35439827 2.84209602 -43.35439827 2.84209602 -45.08148193 2.83114624 C-46.31022034 2.82845734 -47.53895874 2.82576843 -48.80493164 2.82299805 C-50.75685677 2.81314125 -50.75685677 2.81314125 -52.74821472 2.80308533 C-57.05218285 2.78212273 -61.35615105 2.77169586 -65.66015625 2.76171875 C-67.14377803 2.75766941 -68.62739963 2.75355244 -70.11102104 2.74936867 C-77.07673743 2.73034058 -84.04244332 2.7161 -91.00818068 2.7077567 C-99.04691634 2.69796823 -107.08537783 2.67159717 -115.12401682 2.63125581 C-121.34154084 2.60112364 -127.55898607 2.58629093 -133.7765817 2.58297569 C-137.48906264 2.58062349 -141.20124983 2.57164026 -144.91365242 2.54651451 C-149.05076623 2.51896263 -153.18726327 2.52305592 -157.32446289 2.5300293 C-158.55522552 2.51721924 -159.78598816 2.50440918 -161.05404663 2.49121094 C-162.74270088 2.50162666 -162.74270088 2.50162666 -164.46546936 2.51225281 C-165.44345017 2.50986445 -166.42143099 2.5074761 -167.42904758 2.50501537 C-170.73144874 3.14082559 -171.89814374 4.43540015 -174 7 C-174.33 7.66 -174.66 8.32 -175 9 C-174.34 9.66 -173.68 10.32 -173 11 C-174.98 11.99 -174.98 11.99 -177 13 C-176.01 13.66 -175.02 14.32 -174 15 C-174.625 16.9375 -174.625 16.9375 -176 19 C-179.125 19.75 -179.125 19.75 -182 20 C-182 22.31 -182 24.62 -182 27 C-182.763125 27.28875 -183.52625 27.5775 -184.3125 27.875 C-187.15029308 28.96269013 -187.15029308 28.96269013 -190 31 C-187.6453315 20.26524393 -182.02463751 8.6398758 -174 1 C-165.19826805 -3.20701951 -154.85648602 -2.2544952 -145.32869124 -1.83817148 C-141.55225644 -1.70167122 -137.77610835 -1.71644173 -133.99763489 -1.71359253 C-126.82374395 -1.6858839 -119.65923844 -1.52652122 -112.48857433 -1.31787765 C-104.4586324 -1.09025066 -96.4293961 -1.00535952 -88.39676893 -0.93517137 C-75.07583214 -0.81678982 -61.76105267 -0.58526377 -48.44339883 -0.27323937 C-32.2961981 0.09741606 -16.15049922 0.06878425 0 0 Z " fill="#BFDDBE" transform="translate(333,116)"/>
<path d="M0 0 C4.49004063 3.75935006 6.79537223 8.73118979 9.5 13.8125 C10.44744089 15.56926709 11.39534923 17.32578217 12.34375 19.08203125 C12.78976563 19.92330566 13.23578125 20.76458008 13.6953125 21.63134766 C14.51657421 23.12234338 15.38146131 24.59089385 16.3046875 26.02099609 C17.46875 27.82421875 17.46875 27.82421875 19 31 C17.86735266 34.75082906 15.94073977 37.99143363 13.953125 41.3515625 C13.355 42.36863281 12.756875 43.38570312 12.140625 44.43359375 C11.51671875 45.48675781 10.8928125 46.53992188 10.25 47.625 C6.14981876 54.56577291 2.11467295 61.52300258 -1.71044922 68.61987305 C-3.42139374 71.77776743 -5.20326776 74.89027113 -7 78 C-7.66 77.34 -8.32 76.68 -9 76 C-8.04600922 74.20601733 -7.08665974 72.41488345 -6.125 70.625 C-5.59132813 69.62726563 -5.05765625 68.62953125 -4.5078125 67.6015625 C-3 65 -3 65 -1 63 C-0.357366 60.93838264 -0.357366 60.93838264 0.0625 58.625 C0.64831242 55.72982788 1.26197739 52.86065401 2 50 C2.99 50 3.98 50 5 50 C7.40972613 47.98945544 7.40972613 47.98945544 9 45 C8.86013727 41.26276567 8.86013727 41.26276567 8 38 C8.66 38 9.32 38 10 38 C9.67 36.68 9.34 35.36 9 34 C10.65 34 12.3 34 14 34 C14.33 33.34 14.66 32.68 15 32 C13.68 31.67 12.36 31.34 11 31 C11 30.01 11 29.02 11 28 C10.34 28 9.68 28 9 28 C9.33 27.01 9.66 26.02 10 25 C10 24.01 10 23.02 10 22 C9.34 22 8.68 22 8 22 C7.87625 21.05125 7.7525 20.1025 7.625 19.125 C7.28312823 15.91332809 7.28312823 15.91332809 5 14 C5 13.34 5 12.68 5 12 C4.52949219 11.56042969 4.05898437 11.12085937 3.57421875 10.66796875 C1.62048207 8.5978805 1.3350176 7.08586266 0.8125 4.3125 C0.65394531 3.50425781 0.49539062 2.69601563 0.33203125 1.86328125 C0.22246094 1.24839844 0.11289063 0.63351563 0 0 Z M15 29 C16 32 16 32 16 32 Z " fill="#D9EEBB" transform="translate(104,64)"/>
<path d="M0 0 C2.12038635 2.61514317 4.13091744 5.19637616 6 8 C8.93931216 8.465771 8.93931216 8.465771 12.46658325 8.39872742 C13.13799469 8.40537424 13.80940613 8.41202107 14.50116336 8.41886932 C16.76150704 8.43759162 19.02132568 8.43488798 21.28173828 8.43237305 C22.89778395 8.44138462 24.51382275 8.45171034 26.12985229 8.46325684 C30.52630571 8.49092419 34.9226298 8.50012449 39.31915903 8.50611091 C43.91032481 8.51546936 48.50139301 8.54167058 53.09249878 8.56611633 C61.79057447 8.60985488 70.48863132 8.63835658 79.18678367 8.66143972 C89.08754402 8.68845207 98.98820655 8.73236593 108.88889718 8.77772844 C129.25921224 8.87068 149.62955657 8.94231251 170 9 C170 9.66 170 10.32 170 11 C156.14 11 142.28 11 128 11 C127.67 11.66 127.34 12.32 127 13 C125.68 13 124.36 13 123 13 C122.505 12.01 122.505 12.01 122 11 C121.10243343 10.99918285 121.10243343 10.99918285 120.1867342 10.99834919 C105.62245721 10.98337762 91.05843951 10.94091572 76.49434376 10.86790943 C69.45119074 10.83326577 62.4082333 10.80790476 55.36499023 10.80444336 C48.56966752 10.80107767 41.77485244 10.77178172 34.97968102 10.72656822 C32.38534089 10.71356409 29.79094199 10.70929578 27.19657326 10.71384621 C23.56646021 10.71873107 19.93779643 10.69275007 16.30786133 10.65942383 C15.2318013 10.66804947 14.15574127 10.67667511 13.04707336 10.68556213 C5.7725796 10.5733808 5.7725796 10.5733808 1.81278992 7.63456726 C-0.17306126 4.74848628 -0.48908694 3.42360861 0 0 Z " fill="#9DD6D1" transform="translate(80,194)"/>
<path d="M0 0 C0.66 0 1.32 0 2 0 C2 3.63 2 7.26 2 11 C1.01 11 0.02 11 -1 11 C-1.33 12.32 -1.66 13.64 -2 15 C-3.32 15.33 -4.64 15.66 -6 16 C-6.103125 16.53625 -6.20625 17.0725 -6.3125 17.625 C-7 20 -7 20 -8.625 23.0625 C-10.39437733 25.96451683 -10.39437733 25.96451683 -9 29 C-8.01 29.33 -7.02 29.66 -6 30 C-6.20625 30.721875 -6.4125 31.44375 -6.625 32.1875 C-7.06415428 35.48115707 -6.33603484 37.01356919 -5 40 C-5 40.99 -5 41.98 -5 43 C-4.34 43 -3.68 43 -3 43 C-2.67 44.98 -2.34 46.96 -2 49 C-5.4820298 44.90961557 -8.16617883 40.58667294 -10.8125 35.9375 C-11.23208984 35.23044922 -11.65167969 34.52339844 -12.08398438 33.79492188 C-12.67083008 32.7652832 -12.67083008 32.7652832 -13.26953125 31.71484375 C-13.62635986 31.09730225 -13.98318848 30.47976074 -14.35083008 29.84350586 C-15.17690843 27.49761731 -14.82112419 26.31568836 -14 24 C-10.97940561 17.73932165 -7.33177838 11.7668274 -3.75 5.8125 C-3.08484375 4.70519531 -2.4196875 3.59789062 -1.734375 2.45703125 C-1.16203125 1.64621094 -0.5896875 0.83539063 0 0 Z " fill="#71CADA" transform="translate(286,241)"/>
<path d="M0 0 C0.33 0 0.66 0 1 0 C1.39253254 4.44870215 0.15305957 7.14243493 -2 11 C-1.34 11.33 -0.68 11.66 0 12 C-0.99 12.33 -1.98 12.66 -3 13 C-3 13.66 -3 14.32 -3 15 C-2.01 15.33 -1.02 15.66 0 16 C-2.31 16.66 -4.62 17.32 -7 18 C-7.78067496 21.41545293 -8.08972193 24.50084487 -8 28 C-8 29.32 -8 30.64 -8 32 C-10.64 32 -13.28 32 -16 32 C-15.896875 32.928125 -15.79375 33.85625 -15.6875 34.8125 C-15.790625 35.864375 -15.89375 36.91625 -16 38 C-18.5 39.875 -18.5 39.875 -21 41 C-20.71125 40.484375 -20.4225 39.96875 -20.125 39.4375 C-18.88500452 36.95041489 -18.88500452 36.95041489 -18.2265625 33.8984375 C-16.93240833 29.28117901 -14.6258971 25.32590469 -12.25 21.1875 C-11.80406494 20.39794922 -11.35812988 19.60839844 -10.89868164 18.79492188 C-8.02878941 13.7340143 -5.09879776 8.71078615 -2.05859375 3.75 C-0.95955386 1.98601471 -0.95955386 1.98601471 0 0 Z " fill="#CAE9C2" transform="translate(72,95)"/>
<path d="M0 0 C0.33 0.66 0.66 1.32 1 2 C9.58 2 18.16 2 27 2 C27 2.33 27 2.66 27 3 C25.69804688 3.04898437 24.39609375 3.09796875 23.0546875 3.1484375 C21.32810529 3.22350629 19.60154378 3.29905233 17.875 3.375 C16.59109375 3.42140625 16.59109375 3.42140625 15.28125 3.46875 C10.5124128 3.68885018 6.48423193 4.19160483 2 6 C1.53036741 12.36613071 1.81694254 16.81587702 5.22265625 22.30859375 C6 24 6 24 5 27 C3.22723124 23.79273249 1.45713494 20.58399753 -0.3125 17.375 C-0.81201172 16.47136719 -1.31152344 15.56773437 -1.82617188 14.63671875 C-4.30882774 10.13176706 -6.7488073 5.62531743 -9 1 C-4.545 0.505 -4.545 0.505 0 0 Z " fill="#67BDD5" transform="translate(94,288)"/>
<path d="M0 0 C0.671875 1.734375 0.671875 1.734375 1 4 C-0.109375 6.078125 -0.109375 6.078125 -1.75 8.25 C-4.71516382 12.41355566 -6.31731228 16.19232081 -8 21 C-9.32722626 23.41313865 -10.7755061 25.67376179 -12.3359375 27.94140625 C-12.80257812 28.64136719 -13.26921875 29.34132812 -13.75 30.0625 C-14.19859375 30.71347656 -14.6471875 31.36445313 -15.109375 32.03515625 C-16.2064946 34.45555607 -15.89434171 35.55146689 -15 38 C-15.78375 38.4125 -16.5675 38.825 -17.375 39.25 C-20.93697848 41.62465232 -21.58081921 43.71251613 -22.875 47.6875 C-24 50 -24 50 -26.125 50.8125 C-26.74375 50.874375 -27.3625 50.93625 -28 51 C-28 52.98 -28 54.96 -28 57 C-28.66 56.34 -29.32 55.68 -30 55 C-29.65436951 51.21983974 -28.35412962 48.51389579 -26.41015625 45.296875 C-25.61170288 43.96233276 -25.61170288 43.96233276 -24.79711914 42.60083008 C-23.93848267 41.18966919 -23.93848267 41.18966919 -23.0625 39.75 C-21.87485873 37.76961596 -20.68736026 35.78914628 -19.5 33.80859375 C-18.90832031 32.82745605 -18.31664062 31.84631836 -17.70703125 30.83544922 C-15.3024428 26.84132876 -12.92736708 22.83023613 -10.5625 18.8125 C-10.15926514 18.12841064 -9.75603027 17.44432129 -9.34057617 16.73950195 C-6.10369845 11.22609437 -2.99991478 5.64618108 0 0 Z " fill="#A7DDCA" transform="translate(53,128)"/>
<path d="M0 0 C-1.78523247 5.12601839 -4.58048338 9.65029369 -7.3125 14.3125 C-7.78623047 15.12912109 -8.25996094 15.94574219 -8.74804688 16.78710938 C-11.73741801 21.91934025 -14.81920785 26.9842357 -18 32 C-20 28.25 -20 28.25 -20 26 C-20.66 25.67 -21.32 25.34 -22 25 C-20.35 25 -18.7 25 -17 25 C-15.4664924 22.5644291 -14.89462377 21.50053711 -15.5 18.625 C-16.14382111 15.24493917 -15.2465071 13.15292971 -14 10 C-10.535 9.505 -10.535 9.505 -7 9 C-7.33 6.69 -7.66 4.38 -8 2 C-5.09399739 0.74335022 -3.20395416 0 0 0 Z " fill="#66C5DA" transform="translate(328,256)"/>
<path d="M0 0 C1.32 0 2.64 0 4 0 C3.42099256 4.4726227 1.58571622 7.87399106 -0.6875 11.6875 C-1.04328125 12.29674316 -1.3990625 12.90598633 -1.765625 13.53369141 C-2.83566489 15.3607174 -3.91598084 17.18124 -5 19 C-5.61488281 20.03511719 -6.22976563 21.07023437 -6.86328125 22.13671875 C-8.23383249 24.42969349 -9.61170996 26.71773531 -11 29 C-11.66 28.67 -12.32 28.34 -13 28 C-12.85915204 26.20793453 -12.71216299 24.41635083 -12.5625 22.625 C-12.48128906 21.62726563 -12.40007812 20.62953125 -12.31640625 19.6015625 C-12 17 -12 17 -11 15 C-10.195625 14.87625 -9.39125 14.7525 -8.5625 14.625 C-5.84016601 14.27432836 -5.84016601 14.27432836 -4.6875 11.9375 C-4.3471875 10.9784375 -4.3471875 10.9784375 -4 10 C-3.34 10 -2.68 10 -2 10 C-2 8.68 -2 7.36 -2 6 C-2.66 6 -3.32 6 -4 6 C-2.84826645 3.53199953 -1.95216435 1.95216435 0 0 Z " fill="#8ECCD3" transform="translate(341,225)"/>
<path d="M0 0 C0.33 0.99 0.66 1.98 1 3 C0.690625 3.598125 0.38125 4.19625 0.0625 4.8125 C-1.30828261 7.6346995 -1.14075669 9.9033529 -1 13 C-1.66 13 -2.32 13 -3 13 C-3.66 14.32 -4.32 15.64 -5 17 C-3.68 17 -2.36 17 -1 17 C-1 17.66 -1 18.32 -1 19 C-1.99 19.33 -2.98 19.66 -4 20 C-4.33 20.66 -4.66 21.32 -5 22 C-5.99 21.67 -6.98 21.34 -8 21 C-9.68630119 24.51033129 -9.68630119 24.51033129 -9.625 28.3125 C-9.41875 28.869375 -9.2125 29.42625 -9 30 C-9.78375 30.28875 -10.5675 30.5775 -11.375 30.875 C-14.09671632 31.84912254 -14.09671632 31.84912254 -16 34 C-16.29754627 29.34792131 -15.70133695 26.76795027 -13.26171875 22.8125 C-12.68873047 21.86632812 -12.11574219 20.92015625 -11.52539062 19.9453125 C-10.91888672 18.97335938 -10.31238281 18.00140625 -9.6875 17 C-8.50224 15.06351887 -7.31859811 13.12604626 -6.13671875 11.1875 C-5.5854834 10.28773437 -5.03424805 9.38796875 -4.46630859 8.4609375 C-2.81928654 5.69670469 -1.36289009 2.91274704 0 0 Z " fill="#D5EDB7" transform="translate(89,65)"/>
<path d="M0 0 C0.66 1.32 1.32 2.64 2 4 C1.67 4.33 1.34 4.66 1 5 C1.66 5.66 2.32 6.32 3 7 C1.02 7.99 1.02 7.99 -1 9 C-0.01 9.66 0.98 10.32 2 11 C1.375 12.9375 1.375 12.9375 0 15 C-3.125 15.75 -3.125 15.75 -6 16 C-6 18.31 -6 20.62 -6 23 C-6.763125 23.28875 -7.52625 23.5775 -8.3125 23.875 C-11.15029308 24.96269013 -11.15029308 24.96269013 -14 27 C-13.322227 23.438944 -11.85232971 20.71280921 -10.05859375 17.578125 C-9.47529297 16.55332031 -8.89199219 15.52851563 -8.29101562 14.47265625 C-7.37352539 12.87744141 -7.37352539 12.87744141 -6.4375 11.25 C-5.82197266 10.17105469 -5.20644531 9.09210938 -4.57226562 7.98046875 C-3.05244312 5.31783398 -1.52821656 2.65782304 0 0 Z " fill="#B6E3C3" transform="translate(157,120)"/>
<path d="M0 0 C0.99 0 1.98 0 3 0 C1.69728821 4.31069007 0.0324417 7.96332585 -2.2578125 11.8359375 C-2.88300781 12.89941406 -3.50820312 13.96289062 -4.15234375 15.05859375 C-4.80332031 16.15300781 -5.45429687 17.24742187 -6.125 18.375 C-6.78371094 19.49261719 -7.44242187 20.61023438 -8.12109375 21.76171875 C-9.74236876 24.51083725 -11.36880013 27.25676282 -13 30 C-13.66 29.34 -14.32 28.68 -15 28 C-14.525625 27.525625 -14.05125 27.05125 -13.5625 26.5625 C-11.94187251 23.90467092 -11.74224179 22.70779129 -11.5 19.6875 C-11.11104245 15.1546485 -10.26979483 11.97214095 -8 8 C-5.5 6.625 -5.5 6.625 -3 6 C-2.01 5.67 -1.02 5.34 0 5 C-0.2784375 4.0409375 -0.2784375 4.0409375 -0.5625 3.0625 C-0.706875 2.381875 -0.85125 1.70125 -1 1 C-0.67 0.67 -0.34 0.34 0 0 Z " fill="#ABDEC5" transform="translate(91,145)"/>
<path d="M0 0 C0.66 0.99 1.32 1.98 2 3 C1.6596875 3.55945313 1.319375 4.11890625 0.96875 4.6953125 C-3.482269 12.05843435 -7.75254767 19.51844691 -12 27 C-12.99 27 -13.98 27 -15 27 C-14.75 23.625 -14.75 23.625 -14 20 C-12.67532254 19.3162955 -11.34136367 18.65035814 -10 18 C-8.13882739 13.25400985 -7.79325156 9.06533667 -8 4 C-4.535 3.505 -4.535 3.505 -1 3 C-0.67 2.01 -0.34 1.02 0 0 Z " fill="#93D3CF" transform="translate(360,196)"/>
<path d="M0 0 C0.66 0 1.32 0 2 0 C2 0.66 2 1.32 2 2 C2.6909375 1.83628906 3.381875 1.67257812 4.09375 1.50390625 C9.46595212 0.57243572 14.70894766 0.64505702 20 2 C22.55643398 4.32681416 23.91135612 6.73406836 25 10 C25 10.66 25 11.32 25 12 C22.69 12.66 20.38 13.32 18 14 C16.8422494 10.52674819 16.93133348 7.63932552 17 4 C16.01 4.33 15.02 4.66 14 5 C14 4.34 14 3.68 14 3 C12.02 3 10.04 3 8 3 C8 3.66 8 4.32 8 5 C4.28400809 5.20086443 3.22791555 5.1519437 0 3 C0 2.01 0 1.02 0 0 Z " fill="#59C5DF" transform="translate(216,289)"/>
<path d="M0 0 C0.66 0.33 1.32 0.66 2 1 C0.1254797 10.9974416 -7.84675567 21.30683707 -13 30 C-13.66 29.34 -14.32 28.68 -15 28 C-14.04600922 26.20601733 -13.08665974 24.41488345 -12.125 22.625 C-11.59132813 21.62726563 -11.05765625 20.62953125 -10.5078125 19.6015625 C-9 17 -9 17 -7 15 C-6.357366 12.93838264 -6.357366 12.93838264 -5.9375 10.625 C-5.35168758 7.72982788 -4.73802261 4.86065401 -4 2 C-3.01 2 -2.02 2 -1 2 C-0.67 1.34 -0.34 0.68 0 0 Z " fill="#C4E6BF" transform="translate(110,112)"/>
<path d="M0 0 C0.66 0 1.32 0 2 0 C3.14501953 1.56054688 3.14501953 1.56054688 4.3828125 3.71875 C5.04990234 4.86923828 5.04990234 4.86923828 5.73046875 6.04296875 C6.19066406 6.85378906 6.65085937 7.66460937 7.125 8.5 C7.82689453 9.71623047 7.82689453 9.71623047 8.54296875 10.95703125 C9.70201772 12.96762641 10.85396471 14.98196761 12 17 C11.34 17.99 10.68 18.98 10 20 C9.34 19.01 8.68 18.02 8 17 C8.33 16.34 8.66 15.68 9 15 C6.69 14.34 4.38 13.68 2 13 C2.33 12.01 2.66 11.02 3 10 C2.01 9.67 1.02 9.34 0 9 C0 6.03 0 3.06 0 0 Z " fill="#B2E0C4" transform="translate(344,137)"/>
<path d="M0 0 C2 2 2 2 2.125 4.875 C2.08375 5.90625 2.0425 6.9375 2 8 C2 9.32 2 10.64 2 12 C-0.64 12 -3.28 12 -6 12 C-5.896875 12.928125 -5.79375 13.85625 -5.6875 14.8125 C-5.790625 15.864375 -5.89375 16.91625 -6 18 C-8.5 19.875 -8.5 19.875 -11 21 C-10.71125 20.484375 -10.4225 19.96875 -10.125 19.4375 C-8.86226842 16.90968528 -8.86226842 16.90968528 -8.1875 13.625 C-6.76910345 9.29515791 -5.00278486 7.37813297 -2 4 C-0.72147713 1.78412652 -0.72147713 1.78412652 0 0 Z " fill="#BAE6BA" transform="translate(62,115)"/>
<path d="M0 0 C0.99 0.33 1.98 0.66 3 1 C1.40376856 5.39383706 -0.78024333 9.28995807 -3.125 13.3125 C-3.49753906 13.95767578 -3.87007813 14.60285156 -4.25390625 15.26757812 C-5.16632213 16.84675945 -6.08275509 18.42361864 -7 20 C-8.16801612 16.49595163 -7.59818813 14.58912879 -7 11 C-7.33 10.01 -7.66 9.02 -8 8 C-7.34 8 -6.68 8 -6 8 C-6.33 6.68 -6.66 5.36 -7 4 C-5.35 4 -3.7 4 -2 4 C-1.34 2.68 -0.68 1.36 0 0 Z " fill="#CEE9C2" transform="translate(120,94)"/>
<path d="M0 0 C4.62 0 9.24 0 14 0 C13.67 0.66 13.34 1.32 13 2 C10.4375 2.625 10.4375 2.625 8 3 C7.53036741 9.36613071 7.81694254 13.81587702 11.22265625 19.30859375 C12 21 12 21 11 24 C6.81981026 17.10747341 4 11.22540482 4 3 C3.01 3 2.02 3 1 3 C0.67 2.01 0.34 1.02 0 0 Z " fill="#5CC0DD" transform="translate(88,291)"/>
<path d="M0 0 C4.3009404 -0.02513587 8.60183937 -0.04306094 12.90283203 -0.05493164 C14.35921984 -0.05989187 15.81560285 -0.06666215 17.27197266 -0.07543945 C38.52062291 -0.20008647 38.52062291 -0.20008647 46 1 C46.495 1.99 46.495 1.99 47 3 C41.06 3 35.12 3 29 3 C29 2.34 29 1.68 29 1 C19.43 1 9.86 1 0 1 C0 0.67 0 0.34 0 0 Z " fill="#70BCD3" transform="translate(189,288)"/>
<path d="M0 0 C1.32 0.66 2.64 1.32 4 2 C3.34 2 2.68 2 2 2 C3.21815438 6.68520915 4.69559987 10.70543612 7 15 C8.65 15 10.3 15 12 15 C12 15.99 12 16.98 12 18 C14.31 18.33 16.62 18.66 19 19 C19 19.33 19 19.66 19 20 C15.04 20.33 11.08 20.66 7 21 C3.09010042 14.28517246 0.11907574 8.70918842 -1 1 C-0.67 0.67 -0.34 0.34 0 0 Z " fill="#82D0D2" transform="translate(52,225)"/>
<path d="M0 0 C-1.48518799 4.04301175 -3.42877998 7.61146256 -5.625 11.3125 C-6.25664062 12.38113281 -6.88828125 13.44976562 -7.5390625 14.55078125 C-8.02117187 15.35902344 -8.50328125 16.16726563 -9 17 C-10.0546875 15.140625 -10.0546875 15.140625 -11 13 C-10.125 10.75 -10.125 10.75 -9 9 C-8.34 9 -7.68 9 -7 9 C-7.33 6.69 -7.66 4.38 -8 2 C-5.09399739 0.74335022 -3.20395416 0 0 0 Z " fill="#73BBCE" transform="translate(328,256)"/>
<path d="M0 0 C2.28571429 9.14285714 2.28571429 9.14285714 1 13 C-1.31 13 -3.62 13 -6 13 C-6 9.32965255 -4.9247108 7.9000569 -3 4.8125 C-2.443125 3.91144531 -1.88625 3.01039063 -1.3125 2.08203125 C-0.6628125 1.05142578 -0.6628125 1.05142578 0 0 Z " fill="#ABE0C4" transform="translate(142,147)"/>
<path d="M0 0 C2.31 0.33 4.62 0.66 7 1 C6.2368139 2.60781893 5.46412942 4.21113138 4.6875 5.8125 C4.25824219 6.70582031 3.82898438 7.59914062 3.38671875 8.51953125 C2.11778211 10.78931933 0.93443102 12.29248171 -1 14 C-2.01586535 10.95240395 -2.00433442 9.54906747 -1.625 6.4375 C-1.53476562 5.65246094 -1.44453125 4.86742187 -1.3515625 4.05859375 C-1 2 -1 2 0 0 Z " fill="#87C5D1" transform="translate(330,240)"/>
<path d="M0 0 C0.99 0 1.98 0 3 0 C3.08912219 3.83225427 2.87867729 7.26562152 2 11 C0.02 11.33 -1.96 11.66 -4 12 C-3.53898164 7.29761275 -2.96823597 3.76737643 0 0 Z " fill="#7CCFD2" transform="translate(293,228)"/>
<path d="M0 0 C0.671875 1.734375 0.671875 1.734375 1 4 C-0.109375 6.078125 -0.109375 6.078125 -1.75 8.25 C-4.71009479 12.40235519 -6.34346871 16.19605926 -8 21 C-8.66 21.99 -9.32 22.98 -10 24 C-10.66 24 -11.32 24 -12 24 C-12.33 24.99 -12.66 25.98 -13 27 C-13.66 26.67 -14.32 26.34 -15 26 C-14.12988281 24.56720703 -14.12988281 24.56720703 -13.2421875 23.10546875 C-8.64034202 15.49885986 -4.16564465 7.85754932 0 0 Z " fill="#B6E0CA" transform="translate(53,128)"/>
<path d="M0 0 C0.99 0 1.98 0 3 0 C3.81381795 1.93694678 4.62600916 3.87457711 5.4375 5.8125 C5.88996094 6.89144531 6.34242188 7.97039062 6.80859375 9.08203125 C7.60375013 11.0295126 8.33479648 13.00438943 9 15 C9.66 15 10.32 15 11 15 C11 13.68 11 12.36 11 11 C11.99 11 12.98 11 14 11 C13.1875 13.9375 13.1875 13.9375 12 17 C11.01 17.33 10.02 17.66 9 18 C7.49480613 15.37785672 5.99568681 12.75255792 4.5 10.125 C3.85611328 9.00544922 3.85611328 9.00544922 3.19921875 7.86328125 C2.79316406 7.14785156 2.38710938 6.43242187 1.96875 5.6953125 C1.59169922 5.03547363 1.21464844 4.37563477 0.82617188 3.69580078 C0 2 0 2 0 0 Z " fill="#68BDD7" transform="translate(286,293)"/>
<path d="M0 0 C4.62435793 5.33579761 9.64617267 11.93726223 11 19 C10.34 19 9.68 19 9 19 C9 18.01 9 17.02 9 16 C8.34 16 7.68 16 7 16 C6.67 15.01 6.34 14.02 6 13 C5.01 12.67 4.02 12.34 3 12 C3 11.01 3 10.02 3 9 C2.01 8.67 1.02 8.34 0 8 C0.99 7.34 1.98 6.68 3 6 C2.01 6 1.02 6 0 6 C0 4.02 0 2.04 0 0 Z " fill="#E9F4B9" transform="translate(289,41)"/>
<path d="M0 0 C3.50584421 3.15603714 5.58994602 6.47935195 7.8125 10.625 C8.43769531 11.77226562 9.06289063 12.91953125 9.70703125 14.1015625 C10.13371094 15.05804688 10.56039063 16.01453125 11 17 C10.67 17.66 10.34 18.32 10 19 C6.27090888 15.78526628 4.83930599 12.51466017 3 8 C2.34 7.34 1.68 6.68 1 6 C1 5.34 1 4.68 1 4 C0.68521554 2.66216607 0.35412344 1.32796291 0 0 Z " fill="#B0DACD" transform="translate(356,157)"/>
<path d="M0 0 C2.50938328 2.18207242 3.5541519 3.68798553 4 7 C3.28735352 8.83105469 3.28735352 8.83105469 2.12890625 10.671875 C1.71962891 11.33574219 1.31035156 11.99960938 0.88867188 12.68359375 C0.45103516 13.36550781 0.01339844 14.04742187 -0.4375 14.75 C-1.0881543 15.79607422 -1.0881543 15.79607422 -1.75195312 16.86328125 C-2.82352027 18.58249886 -3.91032356 20.292203 -5 22 C-5.33 21.34 -5.66 20.68 -6 20 C-5.328125 18.01171875 -5.328125 18.01171875 -4.25 15.6875 C-3.88003906 14.88054687 -3.51007813 14.07359375 -3.12890625 13.2421875 C-2 11 -2 11 -0.1875 8.3125 C1.40276785 5.21566261 0.84394372 3.29905272 0 0 Z " fill="#A9DCD4" transform="translate(367,176)"/>
<path d="M0 0 C2.40575607 2.18517099 3.79535581 4.25919671 5.1875 7.1875 C5.53167969 7.90292969 5.87585938 8.61835938 6.23046875 9.35546875 C6.48441406 9.89816406 6.73835938 10.44085938 7 11 C1.25 10.125 1.25 10.125 -1 9 C-0.67 7.02 -0.34 5.04 0 3 C-0.66 2.67 -1.32 2.34 -2 2 C-1.34 2 -0.68 2 0 2 C0 1.34 0 0.68 0 0 Z " fill="#BBE6C2" transform="translate(338,125)"/>
<path d="M0 0 C3.3270336 2.2180224 3.88292386 3.27641285 5 7 C4.67 7.66 4.34 8.32 4 9 C3.4225 8.814375 2.845 8.62875 2.25 8.4375 C-0.20692525 7.95976454 -1.64397534 8.24270636 -4 9 C-4 8.34 -4 7.68 -4 7 C-3.34 7 -2.68 7 -2 7 C-1.855625 6.21625 -1.71125 5.4325 -1.5625 4.625 C-1 2 -1 2 0 0 Z " fill="#86D3CD" transform="translate(307,206)"/>
<path d="M0 0 C-0.33 1.32 -0.66 2.64 -1 4 C-2.65 4.33 -4.3 4.66 -6 5 C-6.66 4.01 -7.32 3.02 -8 2 C-11.56769552 1.26393501 -11.56769552 1.26393501 -15 1 C-15 0.67 -15 0.34 -15 0 C-12.87562788 -0.19448477 -10.75046809 -0.38038289 -8.625 -0.5625 C-7.44164062 -0.66691406 -6.25828125 -0.77132813 -5.0390625 -0.87890625 C-2 -1 -2 -1 0 0 Z " fill="#54C6E3" transform="translate(192,291)"/>
<path d="M0 0 C2.52259061 1.97420135 2.9929808 2.96745642 3.6875 6.1875 C3.790625 7.115625 3.89375 8.04375 4 9 C0.37 9 -3.26 9 -7 9 C-6.34 8.34 -5.68 7.68 -5 7 C-4.35232207 4.42938689 -4.35232207 4.42938689 -4 2 C-2.9375 3.875 -2.9375 3.875 -2 6 C-2.33 6.66 -2.66 7.32 -3 8 C-1.35 8 0.3 8 2 8 C1.67 7.4225 1.34 6.845 1 6.25 C0 4 0 4 0 0 Z " fill="#4DB9E2" transform="translate(253,322)"/>
<path d="M0 0 C0.99 0 1.98 0 3 0 C3.268125 0.804375 3.53625 1.60875 3.8125 2.4375 C4.204375 3.283125 4.59625 4.12875 5 5 C5.99 5.33 6.98 5.66 8 6 C7.01 6.495 7.01 6.495 6 7 C6 8.32 6 9.64 6 11 C5.34 11 4.68 11 4 11 C1.38411497 7.44239635 0.50642192 4.35522853 0 0 Z " fill="#4EC2E2" transform="translate(291,297)"/>
<path d="M0 0 C0.66 0 1.32 0 2 0 C2 1.98 2 3.96 2 6 C1.4225 6.020625 0.845 6.04125 0.25 6.0625 C-3.38390121 7.5766255 -4.24850416 10.55956175 -6 14 C-6.66 13.67 -7.32 13.34 -8 13 C-6.716961 10.82778513 -5.42427887 8.6624676 -4.125 6.5 C-3.76019531 5.87996094 -3.39539063 5.25992188 -3.01953125 4.62109375 C-2.0677482 3.04632542 -1.03889741 1.51870947 0 0 Z " fill="#82CDD5" transform="translate(286,241)"/>
<path d="M0 0 C0.99 0.99 1.98 1.98 3 3 C2.34 3 1.68 3 1 3 C1.33 4.65 1.66 6.3 2 8 C-0.31 8.33 -2.62 8.66 -5 9 C-4.50769231 3.46153846 -4.50769231 3.46153846 -1.9375 1.125 C-1.298125 0.75375 -0.65875 0.3825 0 0 Z " fill="#8ED6C9" transform="translate(317,191)"/>
<path d="M0 0 C1.32 0.33 2.64 0.66 4 1 C4.12375 1.639375 4.2475 2.27875 4.375 2.9375 C4.684375 3.9584375 4.684375 3.9584375 5 5 C5.66 5.33 6.32 5.66 7 6 C8.79401325 9.49360475 9.11665191 11.28574649 8 15 C6.66407203 12.6889639 5.33115569 10.37628245 4 8.0625 C3.6184375 7.40314453 3.236875 6.74378906 2.84375 6.06445312 C0 1.11328125 0 1.11328125 0 0 Z " fill="#91D0D1" transform="translate(44,218)"/>
<path d="M0 0 C0.66 0.33 1.32 0.66 2 1 C-0.64 5.62 -3.28 10.24 -6 15 C-6.66 14.34 -7.32 13.68 -8 13 C-7.04600922 11.20601733 -6.08665974 9.41488345 -5.125 7.625 C-4.59132813 6.62726563 -4.05765625 5.62953125 -3.5078125 4.6015625 C-2 2 -2 2 0 0 Z " fill="#BDE4C7" transform="translate(103,127)"/>
<path d="M0 0 C2.31242092 2.16323247 4.0156396 4.37647804 5.6875 7.0625 C6.12449219 7.75472656 6.56148437 8.44695312 7.01171875 9.16015625 C8 11 8 11 8 13 C7.34 13 6.68 13 6 13 C6 12.34 6 11.68 6 11 C5.34 11 4.68 11 4 11 C4 10.01 4 9.02 4 8 C2.68 7.34 1.36 6.68 0 6 C0 4.02 0 2.04 0 0 Z " fill="#60BBE0" transform="translate(241,301)"/>
<path d="M0 0 C1.65 0 3.3 0 5 0 C6.0625 1.8125 6.0625 1.8125 7 4 C6.67 4.99 6.34 5.98 6 7 C4.68 6.67 3.36 6.34 2 6 C2 5.01 2 4.02 2 3 C1.34 3 0.68 3 0 3 C0 2.01 0 1.02 0 0 Z " fill="#CDEBAE" transform="translate(113,89)"/>
<path d="M0 0 C0.99 0.33 1.98 0.66 3 1 C3.103125 1.763125 3.20625 2.52625 3.3125 3.3125 C3.7520119 6.01556765 3.7520119 6.01556765 5.5 7.4375 C7.67409173 9.70217889 7.66189749 11.95707737 8 15 C7.34 15 6.68 15 6 15 C4.99267601 13.06629769 3.99436712 11.12789694 3 9.1875 C2.443125 8.10855469 1.88625 7.02960937 1.3125 5.91796875 C0 3 0 3 0 0 Z " fill="#F3FABB" transform="translate(136,32)"/>
<path d="M0 0 C2.86453858 3.41016497 4.34703566 6.90694544 6 11 C2.04 10.67 -1.92 10.34 -6 10 C-6 9.67 -6 9.34 -6 9 C-3.36 9 -0.72 9 2 9 C1.67 8.2575 1.34 7.515 1 6.75 C0 4 0 4 0 0 Z " fill="#DFF0C4" transform="translate(303,64)"/>
<path d="M0 0 C0.66 0.33 1.32 0.66 2 1 C2 1.66 2 2.32 2 3 C4.31 3.33 6.62 3.66 9 4 C9 4.33 9 4.66 9 5 C3.06 5.495 3.06 5.495 -3 6 C-3.33 5.01 -3.66 4.02 -4 3 C-3 1 -3 1 0 0 Z " fill="#76CFD7" transform="translate(62,240)"/>
<path d="M0 0 C0.33 0.66 0.66 1.32 1 2 C1.66 2 2.32 2 3 2 C1.768606 5.69418201 -0.20791354 7.35109746 -3 10 C-3.66 9.67 -4.32 9.34 -5 9 C-4.3566152 7.686298 -3.71021785 6.37407102 -3.0625 5.0625 C-2.70285156 4.33160156 -2.34320313 3.60070312 -1.97265625 2.84765625 C-1 1 -1 1 0 0 Z " fill="#8AD3CD" transform="translate(254,204)"/>
<path d="M0 0 C1.65 0.33 3.3 0.66 5 1 C4.40072174 4.35595828 3.15377564 6.37801226 1 9 C0.34 7.35 -0.32 5.7 -1 4 C-0.34 4 0.32 4 1 4 C0.67 2.68 0.34 1.36 0 0 Z " fill="#C9EAB1" transform="translate(113,98)"/>
<path d="M0 0 C0.33 1.65 0.66 3.3 1 5 C0.01 4.67 -0.98 4.34 -2 4 C-2 4.66 -2 5.32 -2 6 C-3.65 6.33 -5.3 6.66 -7 7 C-3.72340426 0 -3.72340426 0 0 0 Z " fill="#87CFCC" transform="translate(302,218)"/>
<path d="M0 0 C2.71928517 0.37507382 3.84218661 0.84218661 5.8125 2.8125 C7 5 7 5 6.6875 7.25 C6.460625 7.8275 6.23375 8.405 6 9 C5.34 9 4.68 9 4 9 C0 2.25 0 2.25 0 0 Z " fill="#83D3CC" transform="translate(40,208)"/>
<path d="M0 0 C2.475 0.99 2.475 0.99 5 2 C4.1875 3.9375 4.1875 3.9375 3 6 C2.01 6.33 1.02 6.66 0 7 C-0.99 6.34 -1.98 5.68 -3 5 C-2.01 3.35 -1.02 1.7 0 0 Z " fill="#B3E4BB" transform="translate(154,129)"/>
<path d="M0 0 C0.66 0.33 1.32 0.66 2 1 C1.34 3.31 0.68 5.62 0 8 C-0.66 8 -1.32 8 -2 8 C-2 8.66 -2 9.32 -2 10 C-2.66 10 -3.32 10 -4 10 C-3.29445932 6.33118845 -1.72264494 3.29549466 0 0 Z " fill="#83C7D1" transform="translate(275,259)"/>
<path d="M0 0 C0.99 0.33 1.98 0.66 3 1 C2.6875 4.375 2.6875 4.375 2 8 C1.01 8.66 0.02 9.32 -1 10 C-1.125 2.25 -1.125 2.25 0 0 Z " fill="#73CBD1" transform="translate(330,240)"/>
<path d="M0 0 C0.99 0.33 1.98 0.66 3 1 C2.34 3.97 1.68 6.94 1 10 C0.01 10 -0.98 10 -2 10 C-1.67 9.01 -1.34 8.02 -1 7 C-0.34 7 0.32 7 1 7 C0.65213292 5.02463255 0.65213292 5.02463255 0 3 C-0.66 2.67 -1.32 2.34 -2 2 C-1.34 2 -0.68 2 0 2 C0 1.34 0 0.68 0 0 Z " fill="#76CED3" transform="translate(234,234)"/>
<path d="M0 0 C0.99 0.33 1.98 0.66 3 1 C2.60196439 3.88575819 2.20990931 4.82189513 -0.0625 6.75 C-0.701875 7.1625 -1.34125 7.575 -2 8 C-2.125 5.125 -2.125 5.125 -2 2 C-1.34 1.34 -0.68 0.68 0 0 Z " fill="#59C5E2" transform="translate(306,284)"/>
<path d="M0 0 C1.875 0.1875 1.875 0.1875 4 1 C5.49655455 3.63678659 6.17595756 5.16532951 5.54296875 8.16796875 C5.36378906 8.77253906 5.18460938 9.37710938 5 10 C4.16121545 8.71186658 3.32913217 7.41936744 2.5 6.125 C2.0359375 5.40570313 1.571875 4.68640625 1.09375 3.9453125 C0 2 0 2 0 0 Z " fill="#9FD6D1" transform="translate(32,197)"/>
<path d="M0 0 C2.0625 0.4375 2.0625 0.4375 4 1 C2.25 5.875 2.25 5.875 0 7 C-0.38133299 5.0085944 -0.71325582 3.00720923 -1 1 C-0.67 0.67 -0.34 0.34 0 0 Z " fill="#67CBD9" transform="translate(321,257)"/>
<path d="M0 0 C0.33 0.66 0.66 1.32 1 2 C0.00390625 4.1640625 0.00390625 4.1640625 -1.4375 6.625 C-1.91058594 7.44226563 -2.38367188 8.25953125 -2.87109375 9.1015625 C-3.24363281 9.72804688 -3.61617188 10.35453125 -4 11 C-4.33 11 -4.66 11 -5 11 C-5.39169887 8.33644766 -5.40564529 6.60775627 -3.88671875 4.33203125 C-2.63610683 2.8489112 -1.32135486 1.42045648 0 0 Z " fill="#6ABFD1" transform="translate(308,288)"/>
<path d="M0 0 C2.82504659 1.03585042 3.81669754 1.63339507 5.1875 4.375 C5.86838728 6.57478968 6.50055817 8.75251176 7 11 C3.7218525 8.21357462 2.01055668 4.7437952 0 1 C0 0.67 0 0.34 0 0 Z " fill="#60B5D9" transform="translate(100,315)"/>
<path d="M0 0 C1.98 0 3.96 0 6 0 C5.625 2.4375 5.625 2.4375 5 5 C4.01 5.495 4.01 5.495 3 6 C2.01 4.02 1.02 2.04 0 0 Z " fill="#5CC9DE" transform="translate(274,270)"/>
<path d="M0 0 C3 1 3 1 4.6875 4.0625 C5.120625 5.031875 5.55375 6.00125 6 7 C3.03 6.505 3.03 6.505 0 6 C0.185625 5.38125 0.37125 4.7625 0.5625 4.125 C1.23686176 1.95839822 1.23686176 1.95839822 0 0 Z " fill="#C1E8CC" transform="translate(339,129)"/>
<path d="M0 0 C1.65 0 3.3 0 5 0 C4.67 0.99 4.34 1.98 4 3 C4.39397335 5.63804589 4.39397335 5.63804589 5 8 C2.74754119 5.31158141 1.11786042 3.35358125 0 0 Z " fill="#85C4D5" transform="translate(85,289)"/>
<path d="M0 0 C0.6875 1.75 0.6875 1.75 1 4 C-0.4375 6.25 -0.4375 6.25 -2 8 C-2 7.34 -2 6.68 -2 6 C-2.66 6 -3.32 6 -4 6 C-2.84826645 3.53199953 -1.95216435 1.95216435 0 0 Z " fill="#7ECFD3" transform="translate(341,225)"/>
<path d="M0 0 C-0.33 1.32 -0.66 2.64 -1 4 C-6.75 3.25 -6.75 3.25 -9 1 C-2.25 0 -2.25 0 0 0 Z " fill="#A1DDD7" transform="translate(259,202)"/>
<path d="M0 0 C0.6875 1.75 0.6875 1.75 1 4 C-0.4375 6.25 -0.4375 6.25 -2 8 C-2.68707555 5.50935112 -3 3.62113708 -3 1 C-2.01 0.67 -1.02 0.34 0 0 Z " fill="#91D7CA" transform="translate(363,188)"/>
<path d="M0 0 C0.33 0.66 0.66 1.32 1 2 C0.22265625 3.7265625 0.22265625 3.7265625 -0.9375 5.625 C-1.618125 6.73875 -2.29875 7.8525 -3 9 C-3.66 7.68 -4.32 6.36 -5 5 C-3.35 3.35 -1.7 1.7 0 0 Z " fill="#9AD7D4" transform="translate(254,209)"/>
</svg>
